<?xml version="1.0" encoding="UTF-8" standalone="no"?>
<!-- Created with Inkscape (http://www.inkscape.org/) -->

<svg
   width="19.130873mm"
   height="31.67255mm"
   viewBox="0 0 19.130873 31.67255"
   version="1.1"
   id="svg1"
   xml:space="preserve"
   xmlns:inkscape="http://www.inkscape.org/namespaces/inkscape"
   xmlns:sodipodi="http://sodipodi.sourceforge.net/DTD/sodipodi-0.dtd"
   xmlns="http://www.w3.org/2000/svg"
   xmlns:svg="http://www.w3.org/2000/svg"><sodipodi:namedview
     id="namedview1"
     pagecolor="#ffffff"
     bordercolor="#000000"
     borderopacity="0.25"
     inkscape:showpageshadow="2"
     inkscape:pageopacity="0.0"
     inkscape:pagecheckerboard="0"
     inkscape:deskcolor="#d1d1d1"
     inkscape:document-units="mm"><inkscape:page
       x="0"
       y="0"
       width="19.130873"
       height="31.67255"
       id="page2"
       margin="0"
       bleed="0" /></sodipodi:namedview><defs
     id="defs1" /><g
     inkscape:label="Layer 1"
     inkscape:groupmode="layer"
     id="layer1"
     transform="translate(-1773.1377,-443.3146)"><path
       id="text5-1"
       style="font-size:124.631px;font-family:'Arcane Nine';-inkscape-font-specification:'Arcane Nine, Normal';letter-spacing:0px;fill:#b5ff34;fill-opacity:1;stroke-width:0.059411"
       d="m 1773.1378,465.42178 v -2.73296 h 2.733 v 2.73296 c 0,1.88575 0.6695,3.4982 2.0087,4.83735 1.3301,1.33004 2.9379,1.99506 4.8237,1.99506 1.8857,0 3.4982,-0.66502 4.8373,-1.99506 1.3301,-1.33915 1.9951,-2.9516 1.9951,-4.83735 h -8.1989 v -2.73296 h 10.9319 v 2.73296 c 0,2.64187 -0.9338,4.89657 -2.8014,6.76409 -1.8674,1.86753 -4.1222,2.80129 -6.764,2.80129 -2.6419,0 -4.8966,-0.93376 -6.7641,-2.80129 -1.8675,-1.86752 -2.8013,-4.12222 -2.8013,-6.76409 z m 0,-10.81304 h 2.733 v 2.73296 h 13.6648 v -2.73296 h 2.733 v 8.19888 h -2.733 v -2.73295 h -13.6648 v 2.73295 h -2.733 z m 19.1308,0.11882 h -19.1308 v -4.99317 c 0,-1.49678 0.5262,-2.78308 1.5903,-3.8355 1.0524,-1.06412 2.3387,-1.59033 3.8355,-1.59033 1.4266,0 2.6662,0.49113 3.7069,1.48509 0.4912,-0.77178 1.146,-1.36815 1.9412,-1.80082 0.8068,-0.45605 1.6838,-0.67823 2.631,-0.67823 1.4968,0 2.7714,0.52621 3.8355,1.59034 1.0525,1.05242 1.5904,2.33872 1.5904,3.8355 z"
       sodipodi:nodetypes="sccssscccccssssscccccccccccccccscsccsssc"
       inkscape:export-filename="logo.png"
       inkscape:export-xdpi="300"
       inkscape:export-ydpi="300" /></g></svg>
