<?xml version="1.0" encoding="UTF-8" standalone="no"?>
<!-- Created with Inkscape (http://www.inkscape.org/) -->

<svg
   width="381.93747mm"
   height="632.32953mm"
   viewBox="0 0 381.93747 632.32953"
   version="1.1"
   id="svg1"
   xml:space="preserve"
   xmlns:inkscape="http://www.inkscape.org/namespaces/inkscape"
   xmlns:sodipodi="http://sodipodi.sourceforge.net/DTD/sodipodi-0.dtd"
   xmlns="http://www.w3.org/2000/svg"
   xmlns:svg="http://www.w3.org/2000/svg"><sodipodi:namedview
     id="namedview1"
     pagecolor="#ffffff"
     bordercolor="#000000"
     borderopacity="0.25"
     inkscape:showpageshadow="2"
     inkscape:pageopacity="0.0"
     inkscape:pagecheckerboard="0"
     inkscape:deskcolor="#d1d1d1"
     inkscape:document-units="mm"><inkscape:page
       x="0"
       y="0"
       width="381.93747"
       height="632.32953"
       id="page2"
       margin="0"
       bleed="0" /></sodipodi:namedview><defs
     id="defs1" /><g
     inkscape:label="Layer 1"
     inkscape:groupmode="layer"
     id="layer1"
     transform="translate(-136.6948,2347.4)"><path
       id="text5-1"
       style="font-size:124.631px;font-family:'Arcane Nine';-inkscape-font-specification:'Arcane Nine, Normal';letter-spacing:0px;fill:#a9ff00;fill-opacity:1;stroke-width:1.18612"
       d="m 136.6948,-1906.0391 v -54.5625 h 54.5625 v 54.5625 c 0,37.6481 13.3679,69.84 40.1035,96.5756 26.554,26.5537 58.6549,39.8306 96.3027,39.8306 37.6482,0 69.8402,-13.2769 96.5758,-39.8306 26.5537,-26.7356 39.8305,-58.9275 39.8305,-96.5756 H 300.3823 v -54.5625 h 218.25 v 54.5625 c 0,52.7437 -18.6422,97.7578 -55.9267,135.0421 -37.2841,37.2844 -82.2981,55.9266 -135.0421,55.9266 -52.7436,0 -97.7576,-18.6422 -135.042,-55.9266 -37.2844,-37.2843 -55.9267,-82.2984 -55.9267,-135.0421 z m 0,-215.878 h 54.5625 v 54.5625 h 272.8125 v -54.5625 h 54.5625 v 163.6874 h -54.5625 v -54.5624 H 191.2573 v 54.5624 h -54.5625 z m 381.9375,2.3723 H 136.6948 v -99.6866 c 0,-29.8826 10.5054,-55.563 31.7503,-76.5742 21.0109,-21.2447 46.6917,-31.7503 76.574,-31.7503 28.4818,0 53.2288,9.8053 74.0066,29.6492 9.8052,-15.4082 22.8785,-27.3146 38.7541,-35.9526 16.1083,-9.1048 33.6175,-13.5405 52.5277,-13.5405 29.8827,0 55.33,10.5056 76.5745,31.7503 21.0113,21.0112 31.7503,46.6916 31.7503,76.5742 z"
       sodipodi:nodetypes="sccssscccccssssscccccccccccccccscsccsssc"
       inkscape:export-filename="logo.png"
       inkscape:export-xdpi="300"
       inkscape:export-ydpi="300" /></g></svg>
